<svg xmlns="http://www.w3.org/2000/svg" fill="#15A9E3"  viewBox="0 0 36.096 40.95"><path d="M14.502 40.95H5.574a3.008 3.008 0 0 1-2.832-2.007l-.038-.109a42.887 42.887 0 0 1-2.7-15.571A59.106 59.106 0 0 1 3.547 4.2l.112-.332a2.2 2.2 0 0 1 2.085-1.5h1.893a.6.6 0 0 1 0 1.2H5.745a1 1 0 0 0-.948.68l-.113.333-.064.188h2.836A.6.6 0 0 1 7.924 5a2.778 2.778 0 0 0 4.229 0 .6.6 0 0 1 .468-.224h2.836l-.064-.188-.113-.333a1 1 0 0 0-.948-.68h-4.293a.6.6 0 0 1 0-1.2h4.294a2.2 2.2 0 0 1 2.085 1.5l.113.332c.224.659.5 1.466.8 2.411.475-1.877.992-3.342 1.4-4.5l.039-.109A3.008 3.008 0 0 1 21.594 0h8.927a3.008 3.008 0 0 1 2.832 2.007l.039.11a42.889 42.889 0 0 1 2.7 15.57 59.106 59.106 0 0 1-3.547 19.062l-.112.332a2.2 2.2 0 0 1-2.085 1.5h-1.889a.6.6 0 0 1 0-1.2h1.893a1 1 0 0 0 .948-.68l.113-.333.064-.188H28.64a.6.6 0 0 1-.468-.224 2.777 2.777 0 0 0-4.229 0 .6.6 0 0 1-.468.224h-2.836l.063.186.114.335a1 1 0 0 0 .948.68h4.294a.6.6 0 0 1 0 1.2h-4.294a2.2 2.2 0 0 1-2.09-1.5l-.113-.334a107.92 107.92 0 0 1-.792-2.4c-.474 1.862-.993 3.334-1.4 4.491l-.039.11a3.009 3.009 0 0 1-2.832 2.007ZM3.137 9.577a52.9 52.9 0 0 0-1.936 13.685 41.791 41.791 0 0 0 2.636 15.172l.038.109a1.806 1.806 0 0 0 1.7 1.206h8.927a1.806 1.806 0 0 0 1.7-1.206l.039-.11a41.8 41.8 0 0 0 2.633-15.171 49.941 49.941 0 0 0-1-9.716.6.6 0 0 1 1.177-.234 51.143 51.143 0 0 1 1.022 9.95 46.885 46.885 0 0 1-.668 8.111h13.55a52.9 52.9 0 0 0 1.936-13.686A41.8 41.8 0 0 0 32.26 2.516l-.039-.11a1.806 1.806 0 0 0-1.7-1.206h-8.927a1.806 1.806 0 0 0-1.7 1.206l-.039.11a43.23 43.23 0 0 0-1.831 6.463q.243.881.484 1.863a.6.6 0 1 1-1.166.284q-.193-.794-.391-1.523Zm25.763 25.4h2.974c.228-.7.483-1.5.745-2.4H19.491c.262.9.516 1.7.746 2.4h2.978a3.964 3.964 0 0 1 5.684 0ZM3.474 8.377l13.139.023a74.397 74.397 0 0 0-.754-2.427H12.88a3.964 3.964 0 0 1-5.684 0H4.219a75.201 75.201 0 0 0-.745 2.404Zm6.565 20.1a.6.6 0 0 1-.206-.036l-2.6-.95A5.751 5.751 0 0 1 3.46 22.1v-2.77a.6.6 0 0 1 .806-.564l2.6.95a5.743 5.743 0 0 1 3.169 2.84 5.743 5.743 0 0 1 3.169-2.84l2.6-.95a.6.6 0 0 1 .806.564v2.77a5.751 5.751 0 0 1-3.769 5.386l-2.6.95a.6.6 0 0 1-.206.036Zm-5.378-8.286V22.1a4.546 4.546 0 0 0 2.98 4.258l1.8.656V25.1a4.546 4.546 0 0 0-2.98-4.258Zm5.978 4.909v1.914l1.8-.656a4.546 4.546 0 0 0 2.98-4.258v-1.912l-1.8.656a4.546 4.546 0 0 0-2.98 4.256Zm15.419-2.932a4.16 4.16 0 0 1-4.156-4.156c0-1.843 1.029-4.029 3.238-6.882a1.161 1.161 0 0 1 1.836 0c2.209 2.853 3.238 5.039 3.238 6.882a4.16 4.16 0 0 1-4.157 4.157Zm0-10.262c-1.989 2.576-2.955 4.574-2.955 6.107a2.955 2.955 0 0 0 5.91 0c0-1.532-.967-3.53-2.956-6.106Z"></path></svg>