<svg xmlns="http://www.w3.org/2000/svg" fill="#15A9E3"  viewBox="0 0 512 512"><path d="M296 128V88a8 8 0 0 0-8-8h-8V64h7.208l39.223 7.845a8 8 0 0 0 5.147-.69l32-16a8 8 0 0 0-.427-14.509l-56-24A8.013 8.013 0 0 0 304 16h-96a8 8 0 0 0-8 8v32a8 8 0 0 0 8 8h24v16h-8a8 8 0 0 0-8 8v40a72.081 72.081 0 0 0-72 72v256a40.045 40.045 0 0 0 40 40h144a40.045 40.045 0 0 0 40-40V200a72.081 72.081 0 0 0-72-72zm-80-96h86.358l38.636 16.559-14.117 7.058-37.308-7.462A8.026 8.026 0 0 0 288 48h-72zm32 32h16v16h-16zm-16 32h48v32h-48zm120 296H160V232h192zm-24 88H184a24.028 24.028 0 0 1-24-24v-48h192v48a24.028 24.028 0 0 1-24 24zm24-264H160v-16a56.063 56.063 0 0 1 56-56h80a56.063 56.063 0 0 1 56 56z"></path><path d="M200 336h32v32a8 8 0 0 0 8 8h32a8 8 0 0 0 8-8v-32h32a8 8 0 0 0 8-8v-32a8 8 0 0 0-8-8h-32v-32a8 8 0 0 0-8-8h-32a8 8 0 0 0-8 8v32h-32a8 8 0 0 0-8 8v32a8 8 0 0 0 8 8zm8-32h32a8 8 0 0 0 8-8v-32h16v32a8 8 0 0 0 8 8h32v16h-32a8 8 0 0 0-8 8v32h-16v-32a8 8 0 0 0-8-8h-32z"></path></svg>