<svg xmlns="http://www.w3.org/2000/svg" fill="#15A9E3"  viewBox="0 0 45.38 40.95"><path d="M33.731 40.95H11.65a4.685 4.685 0 0 1-3.355-1.429C5.8 36.934 0 29.94 0 20.916a2.825 2.825 0 0 1 1.3-2.382l2.245-1.454v-3.626A2 2 0 0 1 5.54 11.46h3.2c2.14-2.428 11.416-7.946 14.7-7.946a.665.665 0 1 1 0 1.33c-2.436 0-11.179 5.115-12.84 6.617h25.572c-.663-2.23-2.754-8.942-4.99-9.992a9.707 9.707 0 0 1-4.894 3.047.665.665 0 0 1-.325-1.289A8.5 8.5 0 0 0 30.492.238a.665.665 0 0 1 .752-.19c2.925 1.152 5.606 8.52 6.3 11.413h2.293a2 2 0 0 1 1.994 1.994v3.625l2.249 1.454a2.817 2.817 0 0 1 1.3 2.371 22.947 22.947 0 0 1-1.56 8.2.665.665 0 0 1-1.242-.473 21.829 21.829 0 0 0 1.462-7.047h-19.1a.665.665 0 0 1 0-1.33H43.9a1.508 1.508 0 0 0-.536-.6l-2.388-1.543H4.406l-2.388 1.539a1.5 1.5 0 0 0-.535.6h20.795a.665.665 0 0 1 0 1.33H1.341c.276 8.221 5.591 14.611 7.911 17.018a3.349 3.349 0 0 0 2.4 1.022h22.079a3.343 3.343 0 0 0 2.394-1.018 31.808 31.808 0 0 0 5.469-7.725.665.665 0 0 1 1.192.592 32.653 32.653 0 0 1-5.7 8.059 4.679 4.679 0 0 1-3.351 1.425ZM4.875 16.778h35.631v-3.324a.666.666 0 0 0-.665-.665H5.54a.666.666 0 0 0-.665.665v.665h33.636a.665.665 0 1 1 0 1.33H4.875ZM22.69 36.962a4.607 4.607 0 0 1-4.6-4.6c0-2.041 1.139-4.462 3.586-7.622a1.286 1.286 0 0 1 2.033 0c2.446 3.159 3.586 5.581 3.586 7.622a4.607 4.607 0 0 1-4.6 4.6Zm0-11.365c-2.2 2.852-3.273 5.065-3.273 6.763a3.273 3.273 0 0 0 6.546 0c0-1.7-1.071-3.911-3.273-6.763Zm-.034-.045Z"></path></svg>