<svg xmlns="http://www.w3.org/2000/svg" fill="#15A9E3"  viewBox="0 0 367.36 526.16"><path d="M324.87 526.16H42.39C19.02 526.16 0 507.14 0 483.77V42.39C0 19.02 19.02 0 42.39 0h282.48c23.37 0 42.39 19.02 42.39 42.39l.1 103.42-14.16.01-.1-103.42c0-15.57-12.66-28.24-28.23-28.24H42.39c-15.57 0-28.23 12.66-28.23 28.23v441.38c0 15.57 12.66 28.23 28.23 28.23h282.48c15.57 0 28.23-12.66 28.23-28.23l.1-290.88h14.16l-.1 290.88c0 23.37-19.01 42.39-42.39 42.39z"></path><path d="M176.55 33.56h14.16v35.31h-14.16zM176.55 104.18h14.16v35.31h-14.16zM176.55 174.8h14.16v35.31h-14.16zM176.55 245.43h14.16v35.31h-14.16zM176.55 316.05h14.16v35.31h-14.16zM176.55 386.67h14.16v35.31h-14.16zM176.55 457.29h14.16v35.31h-14.16zM271.91 155.4c-28.24 0-51.22-22.98-51.22-51.22s22.98-51.22 51.22-51.22 51.22 22.98 51.22 51.22-22.98 51.22-51.22 51.22zm0-88.27c-20.43 0-37.06 16.62-37.06 37.06 0 20.43 16.62 37.06 37.06 37.06s37.06-16.62 37.06-37.06-16.63-37.06-37.06-37.06zM95.36 155.4c-28.24 0-51.22-22.98-51.22-51.22s22.98-51.22 51.22-51.22 51.22 22.98 51.22 51.22-22.98 51.22-51.22 51.22zm0-88.27c-20.43 0-37.06 16.62-37.06 37.06 0 20.43 16.62 37.06 37.06 37.06 20.43 0 37.06-16.62 37.06-37.06-.01-20.44-16.63-37.06-37.06-37.06zM271.91 314.3c-28.24 0-51.22-22.98-51.22-51.22s22.98-51.22 51.22-51.22 51.22 22.98 51.22 51.22-22.98 51.22-51.22 51.22zm0-88.28c-20.43 0-37.06 16.62-37.06 37.06 0 20.43 16.62 37.06 37.06 37.06s37.06-16.62 37.06-37.06c0-20.43-16.63-37.06-37.06-37.06zM95.36 314.3c-28.24 0-51.22-22.98-51.22-51.22s22.98-51.22 51.22-51.22 51.22 22.98 51.22 51.22-22.98 51.22-51.22 51.22zm0-88.28c-20.43 0-37.06 16.62-37.06 37.06 0 20.43 16.62 37.06 37.06 37.06 20.43 0 37.06-16.62 37.06-37.06-.01-20.43-16.63-37.06-37.06-37.06zM271.91 473.19c-28.24 0-51.22-22.98-51.22-51.22s22.98-51.22 51.22-51.22 51.22 22.98 51.22 51.22-22.98 51.22-51.22 51.22zm0-88.27c-20.43 0-37.06 16.62-37.06 37.06s16.62 37.06 37.06 37.06 37.06-16.62 37.06-37.06-16.63-37.06-37.06-37.06zM95.36 473.19c-28.24 0-51.22-22.98-51.22-51.22s22.98-51.22 51.22-51.22 51.22 22.98 51.22 51.22-22.98 51.22-51.22 51.22zm0-88.27c-20.43 0-37.06 16.62-37.06 37.06s16.62 37.06 37.06 37.06c20.43 0 37.06-16.62 37.06-37.06s-16.63-37.06-37.06-37.06z"></path><path d="M51.22 97.1h88.28v14.16H51.22zM227.77 97.1h88.28v14.16h-88.28zM51.22 256h88.28v14.16H51.22zM227.77 256h88.28v14.16h-88.28zM227.77 414.9h88.28v14.16h-88.28zM51.22 414.9h88.28v14.16H51.22zM353.2 157.58h14.16v11.77H353.2z"></path></svg>