<svg xmlns="http://www.w3.org/2000/svg" fill="#15A9E3" viewBox="0 0 40.95 40.95"><path d="M32.443 11a5.877 5.877 0 0 1-1.025-1.379l.283-.141a.682.682 0 0 0 .3-.913l-1.975-3.951V.683A.683.683 0 0 0 29.347 0h-19.11a.683.683 0 0 0-.683.683v3.934L7.768 8.19H2.73a.683.683 0 0 0-.683.683v3.934L.072 16.758a.682.682 0 0 0 .305.916l1.67.835v4.114A9.189 9.189 0 0 0 5.363 29.7l9.5 7.914a14.418 14.418 0 0 0 9.213 3.336 9.382 9.382 0 0 0 9.315-8.365 9.37 9.37 0 0 0 4.81-15.819Zm-.965.965 5.763 5.763a7.966 7.966 0 0 1 1.979 3.259L31.369 25.7a9.529 9.529 0 0 0-.67-.745l-5.763-5.763a5.876 5.876 0 0 1-1.025-1.379l.283-.141a.683.683 0 0 0 .305-.916l-1.975-3.951V9.977l.377-.189a2.209 2.209 0 0 1 1.975 0l1.509.755a3.573 3.573 0 0 0 3.2 0l.616-.308a7.234 7.234 0 0 0 1.281 1.733Zm-25.335.317v-2.73h1.365v2.73Zm2.73-2.73h1.365v2.73H8.872Zm2.73 0h1.365v2.73h-1.367Zm2.73 0h1.368v2.73h-1.369Zm2.73 0h1.365v2.73h-1.366Zm2.73 0h1.365v2.73h-1.366Zm8.873-5.46h-1.365v-2.73h1.365Zm-15.015 0v-2.73h1.365V4.1Zm2.73-2.73h1.365V4.1H16.38Zm2.73 0h1.365V4.1H19.11Zm2.73 0h1.36V4.1H21.84Zm2.73 0h1.365V4.1H24.57Zm-13.65 0h1.365V4.1H10.92Zm-.261 4.1h18.266l1.554 3.107-1.509.755a2.208 2.208 0 0 1-1.975 0l-1.509-.755a3.566 3.566 0 0 0-3.069-.059.682.682 0 0 0-.577-.318H9.294Zm-7.247 4.1h1.365v2.73H3.412Zm-.261 4.095h18.266l1.554 3.107-1.509.755a2.208 2.208 0 0 1-1.975 0l-1.509-.754a3.573 3.573 0 0 0-3.2 0l-1.509.754a2.208 2.208 0 0 1-1.975 0l-1.509-.754a3.573 3.573 0 0 0-3.2 0l-1.509.754a2.208 2.208 0 0 1-1.975 0l-1.501-.762Zm20.921 25.928a13.05 13.05 0 0 1-8.339-3.019l-9.5-7.915a7.828 7.828 0 0 1-2.824-6.03v-3.579a3.545 3.545 0 0 0 2.281-.31l1.509-.755a2.208 2.208 0 0 1 1.975 0l1.509.755a3.573 3.573 0 0 0 3.2 0l1.509-.755a2.208 2.208 0 0 1 1.975 0l1.509.755a3.573 3.573 0 0 0 3.2 0l.616-.308a7.234 7.234 0 0 0 1.281 1.733l5.763 5.763a7.966 7.966 0 0 1 1.979 3.259L22.171 34.9l.7 1.17 9.143-5.486a8.13 8.13 0 0 1 .061.992 8.013 8.013 0 0 1-8.002 8.009Zm9.361-8.406a9.3 9.3 0 0 0-1.284-4.354l7.375-4.425a8.132 8.132 0 0 1 .06.992 8.031 8.031 0 0 1-6.151 7.787Z"></path></svg>